PathFileType	4	(x/y/z)	S09_PSF_T03
DataRate	CameraRate	NumFrames	NumMarkers	Units	OrigDataRate	OrigDataStartFrame	OrigNumFrames
240	240	4	51	mm	240	346	461
Frame#	Time	Sternum			R.Acromium			L.Acromium			Top.Head			R.ASIS			L.ASIS			R.PSIS			L.PSIS			R.Great.Tro			L.Great.Tro			R.Iliac.Crest			L.Iliac.Crest			V.Sacral			R.Thigh.Upper.Post			R.Thigh.Lower.Ant			R.Thigh.Lower.Post			R.Thigh.Upper.Ant			R.Knee.Lat			R.Knee.Med			R.Shank.Upper.Post			R.Shank.Lower.Ant			R.Shank.Lower.Post			R.Shank.Upper.Ant			R.Ankle.Lat			R.Ankle.Med			R.Heel.Upper			R.Heel.Med			R.Heel.Lat			R.Toe.Lat			R.Toe.Med			R.Toe.Tip			L.Thigh.Upper.Post			L.Thigh.Lower.Ant			L.Thigh.Lower.Post			L.Thigh.Upper.Ant			L.Knee.Lat			L.Knee.Med			L.Shank.Upper.Post			L.Shank.Lower.Ant			L.Shank.Lower.Post			L.Shank.Upper.Ant			L.Ankle.Lat			L.Ankle.Med			L.Heel.Upper			L.Heel.Med			L.Heel.Lat			L.Toe.Lat			L.Toe.Med			L.Toe.Tip			Cervical.Spine			Back			
		X1	Y1	Z1	X2	Y2	Z2	X3	Y3	Z3	X4	Y4	Z4	X5	Y5	Z5	X6	Y6	Z6	X7	Y7	Z7	X8	Y8	Z8	X9	Y9	Z9	X10	Y10	Z10	X11	Y11	Z11	X12	Y12	Z12	X13	Y13	Z13	X14	Y14	Z14	X15	Y15	Z15	X16	Y16	Z16	X17	Y17	Z17	X18	Y18	Z18	X19	Y19	Z19	X20	Y20	Z20	X21	Y21	Z21	X22	Y22	Z22	X23	Y23	Z23	X24	Y24	Z24	X25	Y25	Z25	X26	Y26	Z26	X27	Y27	Z27	X28	Y28	Z28	X29	Y29	Z29	X30	Y30	Z30	X31	Y31	Z31	X32	Y32	Z32	X33	Y33	Z33	X34	Y34	Z34	X35	Y35	Z35	X36	Y36	Z36	X37	Y37	Z37	X38	Y38	Z38	X39	Y39	Z39	X40	Y40	Z40	X41	Y41	Z41	X42	Y42	Z42	X43	Y43	Z43	X44	Y44	Z44	X45	Y45	Z45	X46	Y46	Z46	X47	Y47	Z47	X48	Y48	Z48	X49	Y49	Z49	X50	Y50	Z50	X51	Y51	Z51	

346	1.4375	369.22	1186.5	279.09	225.14	1428.9	428.25	228.69	1431.9	114.11	232.23	1736.9	270.66	310.51	1009.2	387.36	324.37	1025.7	143.46	93.392	1036.5	296.96	105.78	1046.2	208.3	223.03	918.94	451.42	261.46	937.62	67.976	221.35	1087	426.6	218.35	1120.7	104.43	80.205	1007.5	244.5	258.56	672.21	446.45	346.61	579.13	429.68	267.86	579.2	426.49	330.38	667.55	446.84	319.5	496.94	424.26	337.13	483.23	300.88	151.21	434.74	412.01	143.92	343.52	404.58	90.034	390.79	395.29	198.86	390.62	421.05	-42.248	259.93	365.71	-1.1522	241.67	284.54	-78.992	304.51	304.3	-95.344	280.81	270.6	-111.76	287.11	333.45	-60.009	140.04	395.74	-9.2	104.4	301.94	17.446	70.503	351.39	227.31	669.18	122.49	320.04	585.24	134.31	251.97	584.59	147.72	297.74	666.38	104.77	314.16	506.59	148.54	329.2	528.78	280.75	268.48	372.45	143.44	331.74	284.06	163.57	268.83	295.94	154.58	330.6	361.44	153.61	286.62	101.4	187.64	301.88	99.683	280.73	218.11	70.22	241.4	230.99	47.048	275.21	218.6	40.858	214.7	390.81	43.132	158.94	429.54	45.246	268.63	478.42	63.525	208.38	149.52	1480.5	281.7	104.53	1212.1	263.13
347	1.4417	374.19	1187	279.3	230.17	1429.7	428.15	234.29	1432.7	113.96	237.82	1737.7	270.49	315.27	1010.2	387.32	329.19	1026.2	143.39	98.17	1037.5	296.57	110.56	1047.3	207.92	227.81	920	451.14	265.77	938.17	67.878	225.92	1087.9	426.43	223.78	1121.5	104.28	84.96	1008.5	244.1	267.23	673.87	447.18	356.41	581.94	430.28	277.64	580.96	427.55	339.13	670.17	447.36	330.31	499.28	425.01	347.95	485.64	301.55	162.45	435.46	412.82	156.02	344.2	405.2	101.67	390.97	396.06	210.52	391.79	421.68	-29.557	259.39	366.27	11.851	241.28	285.09	-67.046	302.97	304.47	-83.003	278.74	270.93	-99.535	285.22	333.73	-45.278	139.51	397.08	6.0801	104.02	303.51	33.273	70.943	353.23	229.88	670.01	122.42	322.03	585.37	134.09	253.93	585.2	147.52	300.25	666.72	104.59	315.54	506.71	148.29	330.82	528.83	280.46	269.31	372.63	143.28	332.33	284.06	163.39	269.43	296.14	154.45	331.41	361.44	153.39	286.71	101.45	187.64	302.02	99.813	280.71	218.14	70.318	241.43	231.01	47.123	275.22	218.63	40.988	214.7	390.84	43.071	158.9	429.59	45.211	268.59	478.48	63.377	208.31	154.88	1481.5	281.44	109.55	1213.1	262.52
348	1.4458	379.15	1187.5	279.52	235.22	1430.5	428.05	239.88	1433.6	113.83	243.4	1738.5	270.34	320.02	1011.2	387.25	333.99	1026.7	143.29	102.94	1038.5	296.22	115.31	1048.3	207.57	232.64	921.06	450.89	270.07	938.7	67.778	230.51	1088.9	426.28	229.17	1122.2	104.15	89.704	1009.6	243.75	275.84	675.56	447.89	366.13	584.79	430.83	287.35	582.76	428.58	347.83	672.82	447.82	341.05	501.66	425.7	358.68	488.09	302.18	173.66	436.11	413.6	168.15	344.81	405.82	113.31	391.03	396.82	222.17	392.91	422.31	-16.756	258.62	366.86	24.973	240.68	285.68	-54.986	301.17	304.68	-70.526	276.43	271.28	-87.188	283.07	334.03	-30.408	138.75	398.42	21.522	103.47	305.09	49.266	71.227	355.07	232.45	670.83	122.36	324.02	585.49	133.9	255.9	585.8	147.35	302.76	667.05	104.43	316.91	506.82	148.06	332.37	528.88	280.21	270.1	372.82	143.15	332.89	284.06	163.21	269.99	296.34	154.35	332.2	361.43	153.18	286.82	101.52	187.64	302.16	99.94	280.7	218.17	70.415	241.47	231.02	47.196	275.23	218.66	41.121	214.71	390.86	43.016	158.87	429.64	45.173	268.55	478.54	63.231	208.25	160.23	1482.4	281.19	114.55	1214.2	261.93
349	1.45	384.09	1187.9	279.74	240.27	1431.3	427.95	245.48	1434.4	113.7	248.98	1739.3	270.2	324.77	1012.1	387.15	338.75	1027.2	143.16	107.69	1039.5	295.91	120.03	1049.3	207.25	237.5	922.12	450.67	274.37	939.19	67.674	235.12	1089.8	426.14	234.52	1122.9	104.03	94.438	1010.6	243.44	284.38	677.27	448.57	375.77	587.67	431.32	296.99	584.59	429.57	356.45	675.48	448.24	351.7	504.1	426.33	369.29	490.58	302.75	184.82	436.68	414.37	180.32	345.34	406.43	124.96	390.97	397.56	233.81	394	422.92	-3.8447	257.61	367.48	38.21	239.87	286.3	-42.813	299.12	304.94	-57.913	273.87	271.68	-74.719	280.64	334.37	-15.393	137.79	399.76	37.122	102.75	306.66	65.421	71.362	356.89	235.02	671.64	122.32	326.01	585.6	133.74	257.87	586.41	147.2	305.27	667.37	104.31	318.27	506.93	147.85	333.85	528.91	279.98	270.87	373.01	143.04	333.43	284.07	163.04	270.53	296.54	154.27	332.96	361.43	152.98	286.92	101.58	187.66	302.3	100.06	280.69	218.2	70.511	241.51	231.03	47.264	275.24	218.7	41.257	214.72	390.89	42.965	158.84	429.69	45.131	268.52	478.6	63.089	208.2	165.58	1483.3	280.94	119.55	1215.2	261.35
